<?xml version="1.0" encoding="utf-8"?>
<!-- Generator: Adobe Illustrator 17.1.0, SVG Export Plug-In . SVG Version: 6.00 Build 0)  -->
<!DOCTYPE svg PUBLIC "-//W3C//DTD SVG 1.1//EN" "http://www.w3.org/Graphics/SVG/1.1/DTD/svg11.dtd">
<svg version="1.1" id="Layer_1" xmlns="http://www.w3.org/2000/svg" xmlns:xlink="http://www.w3.org/1999/xlink" x="0px" y="0px"
	 viewBox="0 0 211.4 107.8" enable-background="new 0 0 211.4 107.8" xml:space="preserve">
<g>
	<path fill="#AF966F" d="M104.7,107.8c34.3-25.5,73.8-42.3,106.6-53.1c0-1.5,0-4.5,0-9.8c0-0.4,0-0.8,0-1.3
		C186.8,37.9,145.1,25.3,105.7,0C66.2,25.3,24.5,37.9,0,43.6c0,0.4,0,0.9,0,1.3c0,0.1,0,2.8,0,10.3C32.3,66,70.9,82.7,104.7,107.8z"
		/>
	<g>
		<g>
			<path fill-rule="evenodd" clip-rule="evenodd" fill="#FFFFFF" d="M83.8,33.8c0,0-1.7,3.5-1.6,3.5c-0.2-0.1-5.9-0.8-8.7,0.2
				c-1.2,0.7-2.3,1.2-3.4,3.8c0.2,0.1,0.6,0,0.9-0.1c2.8-0.7,5.8-2.1,9-0.8c-0.2,0.3-3.3,2.4-4.4,3.5c-1.5-0.4-3-0.6-4.5-0.4
				c-0.7,0.1-1.4,0.2-2.1,0.5c-0.1,0.5-0.4,0.8-0.6,1.5c-1.7,3.8-3.5,7.6-5.5,11.3c-1.7,3-5.1,4.8-8.7,4.4c-2.6-0.2-5.3-1.7-6.1-4.3
				c-0.4-0.9-0.2-4.1,0.1-4.6c0.9-3.4,4.3-5.2,7.4-5.6c0-0.1,0.9,6.8,1,6.8c-1.4,0-3.1,0.3-3.9,1.5c-0.4,0.6-0.6,1.1-0.5,1.4
				c0.1,0.8,0.7,1.2,1.4,1.4c0.5,0.2,1,0,1,0c1.7,0,2.5-1.4,3.3-2.8c1.1-2.8,2.4-5.1,3.3-7.9c0.2-0.8,0.5-1.2,0.6-1.7
				c-1.5-0.2-3.2-0.9-3.7-2.4c-0.1-0.3-0.3-0.8,0-1.3c0.4-1.1,1-2.2,2.2-2.7l0.4,0c0.2,0.6-0.6,0.6-0.9,0.9
				c-0.7,0.7-0.8,1.6-0.4,2.5c0.5,0.7,1.2,1,2,1.1c0.4-0.1,0.8-0.2,1.2-0.3c0.2-0.7,0.4-1.1,0.7-2c1-2,1.6-4.4,3.6-5.7
				c3-2.3,8.1-1.5,10.7-1.6C78.8,33.8,83.8,33.8,83.8,33.8 M113.7,40.1c0,0.1-0.8,1.6-1.2,2.5c0,0,4.4,0,4.4,0c0,0-0.9,2.1-1,2
				l-4.5,0c-0.4,1.1-4.4,9.7-5.2,12.2c-0.1,0.2,0,0.6,0.2,0.7c1.4,0.3,2.3-0.9,3-1.5c0.1-1.2,0.1-2.9,0.8-4.1c1.1-3.1,4-6.2,7.5-6.4
				c1.7,0,3.8,0,4.6,1.8c0.4-0.5,0.6-1.2,0.9-1.9l6,0c-0.2,0.7-0.6,1.4-0.9,2.1c-1,2.8-2.4,5.4-3.5,8.1c-0.1,0.5-0.3,1.1,0,1.6
				c0.2,0.3,0.6,0.3,0.9,0.5c0.9,0.1,1.6-0.6,2.2-1.2c1.1-2.9,2.7-5.4,3.6-8.3c0.1-0.4,0.3-1.1-0.2-1.1c-0.4-0.1-1.3,0.4-1.8,0.5
				l0-0.4c1.6-1.4,3.7-1.8,6-1.6c1.2,0.1,2.3,0.7,2.9,1.7c0.5-0.2,0.8-0.5,1.2-0.8c1.7-0.9,4.2-0.9,5.9,0c0.7,0.6,1.3,1.6,1,2.7
				c-1.2,2.2-3.1,6.6-3.1,6.6c-0.4,0.7-0.6,1.2-0.5,1.6c0.2,0.5,0.9,0.2,1.3,0.1c1-0.4,1.8-1.2,2.1-2.3c0.2-3.9,2.5-7.4,6-9.1
				c1.8-0.7,4-0.7,5.8,0.1c0.6,0.3,0.8,0.9,1.3,1.3c0.4-0.5,0.8-1.8,0.8-1.5l6,0c-1.2,2.5-2.3,5.1-3.5,7.5c-0.5,1.2-1.6,2.4-1.4,3.9
				c0.2,0.4,0.6,0.6,1,0.6c0.9-0.2,1.6-0.7,2.2-1.3l0.4,0c-0.8,2.2-2.7,4.2-5.1,4.4c-1.2,0.2-2.3-0.6-2.9-1.5
				c-0.2-0.5-0.2-1-0.5-0.8c-1.5,1.3-3.6,2.5-5.7,2.2c-1.8-0.4-3.5-2.1-4.1-3.9c-1.4,2.5-4.3,4.1-7.4,3.7c-1,0-2-0.5-2.5-1.4
				c-1-1.6,0.3-3.2,0.8-4.6c0.7-1.9,2-3.5,2-5.6c-0.2-0.3-0.6-0.4-1-0.4c-1.6,0.8-1.8,2.8-2.6,4.2c-1.2,2.4-2.4,5-3.6,7.5l-6.1,0
				c0,0,0.7-1.3,0.7-1.6c-1.5,1.1-3.3,2.4-5.2,1.7c-0.8-0.4-1.3-1-1.6-1.8c-1.9,1.7-5,2.9-7.4,1.8c-1.4-0.8-2.1-2-2.7-3.2
				c-1.3,1.9-3.7,3.8-6.3,3.6c-1.4-0.2-3-1.2-3.8-2.5c-0.4,0.2-0.7,0.7-1,1c-1.9,1.2-4.9,2.1-7.1,0.8c-0.6-0.6-1.2-1.2-1.1-2.2
				c0.7-2.6,2.1-5,3.1-7.5c0.1-0.6,0.4-1.1,0.1-1.6c-0.3-0.3-0.8-0.3-1.2-0.2c0,0-0.6,0.5-0.7,0.8c-1.7,3.4-3.3,7.2-5.2,10.6l-6,0
				c0,0,2.8-6.7,4.2-9.4c-1.1,0.4-3,0.4-3,0.4c-0.4,3.8-2.8,7.6-6.4,8.9c-1.4,0.7-4.3,0.4-4.3,0.4c-1.7-0.5-3.4-1.5-4-3.3
				c-1.4-3.3,0.4-6.9,2.6-9.2c2.5-2.4,6.6-3.4,9.8-1.8c1,0.5,1.7,1.5,1.8,2.3c1.1,0.9,2.6,0.7,3.8,0.2c0.3-0.2,0.7-0.4,0.7-0.9
				c0.1-0.4,0-0.8-0.4-0.9c-0.6-0.1-1.2,0.4-1.3,0.6c-0.1,0-0.3,0.1-0.4-0.1l0.1-0.2c1.5-1.5,3.7-2,6-1.7c1.2,0.1,2.3,0.7,2.9,1.7
				c0.5-0.1,0.6-0.4,1.2-0.7c1.7-0.9,3.9-1,5.6-0.2c0.6,0.4,1.1,1,1.2,1.7c0.2,1.1-0.4,1.8-0.7,2.7c-1,2.2-2.3,4.2-2.8,6.6
				c0.3,0.6,0.8,0.3,1.8,0c0.6-0.1,5.9-12.4,6-12.6l-3.2,0c0,0.1,1-2,1-2c3.9-0.1,7.7-0.9,10.8-2.9L113.7,40.1 M72.9,52.6
				c0.9-2,2.2-3.3,3.2-2.9c0.9,0.4,0.9,2.3,0.1,4.3c-0.8,2-2.2,3.3-3.1,2.9C72.1,56.5,72.1,54.6,72.9,52.6 M153.1,51.7
				c1.1-1.5,2.7-2.3,3.6-1.6c0.9,0.6,0.7,2.4-0.3,3.9c-1.1,1.5-2.7,2.3-3.6,1.7C151.9,55,152.1,53.2,153.1,51.7 M116,51.7
				c1.1-1.5,2.7-2.3,3.6-1.6c0.9,0.6,0.7,2.4-0.3,3.9c-1.1,1.5-2.7,2.3-3.6,1.7C114.8,55,114.9,53.2,116,51.7z"/>
		</g>
		<path fill="#FFFFFF" d="M167.4,59h0.5l0.7,1.2h0.4l-0.8-1.2c0.4-0.1,0.7-0.2,0.7-0.7c0-0.5-0.3-0.8-0.9-0.8h-1v2.7h0.4V59z
			 M167.9,61.2c1.3,0,2.3-1,2.3-2.3c0-1.3-1.1-2.3-2.3-2.3c-1.3,0-2.3,1-2.3,2.3C165.5,60.2,166.6,61.2,167.9,61.2z M166,58.9
			c0-1.1,0.8-1.9,1.9-1.9c1,0,1.9,0.8,1.9,1.9c0,1.1-0.8,1.9-1.9,1.9C166.8,60.8,166,60,166,58.9z M167.4,58.7v-0.8h0.5
			c0.3,0,0.6,0.1,0.6,0.4c0,0.4-0.3,0.4-0.6,0.4H167.4z"/>
	</g>
</g>
</svg>
