<?xml version="1.0" encoding="utf-8"?>
<!-- Generator: Adobe Illustrator 17.1.0, SVG Export Plug-In . SVG Version: 6.00 Build 0)  -->
<!DOCTYPE svg PUBLIC "-//W3C//DTD SVG 1.1//EN" "http://www.w3.org/Graphics/SVG/1.1/DTD/svg11.dtd">
<svg version="1.1" id="Layer_1" xmlns="http://www.w3.org/2000/svg" xmlns:xlink="http://www.w3.org/1999/xlink" x="0px" y="0px"
	 viewBox="0 0 266.4 93.5" enable-background="new 0 0 266.4 93.5" xml:space="preserve">
<g>
	<g>
		<path fill="#818A8F" d="M237.6,92.8c-10.6,2.9-21.5-3.4-24.4-14.1c-2.9-10.6,3.4-21.5,14.1-24.4c10.6-2.9,21.5,3.4,24.4,14.1
			C254.5,79.1,248.2,90,237.6,92.8"/>
		<path fill="#FFFFFF" d="M236.8,89.7c-8.9,2.4-18.1-2.9-20.4-11.8c-2.4-8.9,2.9-18.1,11.8-20.4c8.9-2.4,18.1,2.9,20.5,11.8
			C250.9,78.2,245.7,87.3,236.8,89.7"/>
		<path fill="#C4282F" d="M236,86.7c-6.7,1.8-13.6-1.9-15.9-8.3l25.6-6.9C246.8,78.3,242.7,84.9,236,86.7 M237.3,80.4
			c-0.5-2-4-3.8-4-3.8s-2.1,3.3-1.6,5.3c0.4,1.5,2,2.5,3.5,2C236.7,83.5,237.7,81.9,237.3,80.4"/>
	</g>
	<g>
		<path fill="#818A8F" d="M77,72L77,72c0-8.3,6.2-15.1,15-15.1c4.5,0,7.4,1.3,10,3.3c0.5,0.4,1,1.1,1,2c0,1.4-1.1,2.5-2.5,2.5
			c-0.7,0-1.2-0.2-1.5-0.5c-2-1.6-4.2-2.6-6.9-2.6c-5.5,0-9.6,4.6-9.6,10.3v0.1c0,5.7,4,10.3,9.6,10.3c3.1,0,5.1-1,7.3-2.8
			c0.4-0.3,0.9-0.6,1.5-0.6c1.3,0,2.4,1.1,2.4,2.4c0,0.8-0.4,1.4-0.8,1.8c-2.7,2.4-5.8,3.9-10.5,3.9C83.3,86.9,77,80.3,77,72"/>
		<path fill="#818A8F" d="M123.5,75.6L123.5,75.6c0-3.9-2.8-7.1-6.7-7.1c-4,0-6.6,3.1-6.6,7v0.1c0,3.8,2.8,7,6.7,7
			C120.9,82.5,123.5,79.4,123.5,75.6 M105.2,75.6L105.2,75.6c0-6.3,5-11.5,11.7-11.5c6.7,0,11.7,5.1,11.7,11.4v0.1
			c0,6.2-5,11.4-11.7,11.4C110.1,86.9,105.2,81.8,105.2,75.6"/>
		<path fill="#818A8F" d="M132.5,68.8h-0.9c-1.2,0-2.1-0.9-2.1-2.1c0-1.2,0.9-2.1,2.1-2.1h0.9V63c0-2.4,0.6-4.2,1.8-5.4
			c1.2-1.2,2.8-1.7,4.9-1.7c1,0,1.8,0.1,2.5,0.2c0.9,0.1,1.7,1,1.7,2.1c0,1.2-1,2.1-2.1,2.1c-0.3,0-0.7-0.1-1-0.1
			c-1.9,0-2.9,1-2.9,3.3v1.2h3.3c1.2,0,2.1,0.9,2.1,2.1c0,1.2-1,2.1-2.1,2.1h-3.2v15.3c0,1.4-1.1,2.5-2.5,2.5
			c-1.4,0-2.5-1.1-2.5-2.5V68.8z"/>
		<path fill="#818A8F" d="M147.9,68.8H147c-1.2,0-2.1-0.9-2.1-2.1c0-1.2,1-2.1,2.1-2.1h0.9V63c0-2.4,0.6-4.2,1.8-5.4
			c1.2-1.2,2.8-1.7,4.9-1.7c1,0,1.8,0.1,2.5,0.2c0.9,0.1,1.7,1,1.7,2.1c0,1.2-1,2.1-2.1,2.1c-0.3,0-0.7-0.1-1-0.1
			c-1.9,0-2.9,1-2.9,3.3v1.2h3.3c1.2,0,2.1,0.9,2.1,2.1c0,1.2-1,2.1-2.1,2.1h-3.2v15.3c0,1.4-1.1,2.5-2.5,2.5
			c-1.4,0-2.5-1.1-2.5-2.5V68.8z"/>
		<path fill="#818A8F" d="M174.8,74c-0.3-3.2-2.2-5.8-5.6-5.8c-3.1,0-5.2,2.4-5.7,5.8L174.8,74z M169.8,86.9
			c-6.3,0-11.3-4.6-11.3-11.4v-0.1c0-6.3,4.4-11.4,10.7-11.4c7,0,10.4,5.7,10.4,10.8c0,1.4-1.1,2.4-2.4,2.4h-13.7
			c0.5,3.6,3.1,5.5,6.3,5.5c2.1,0,3.8-0.7,5.2-1.9c0.4-0.3,0.7-0.5,1.3-0.5c1.1,0,2,0.9,2,2c0,0.6-0.3,1.2-0.7,1.5
			C175.7,85.8,173.2,86.9,169.8,86.9"/>
		<path fill="#818A8F" d="M198.2,74c-0.3-3.2-2.2-5.8-5.6-5.8c-3.1,0-5.2,2.4-5.7,5.8H198.2z M193.3,86.9c-6.3,0-11.3-4.6-11.3-11.4
			v-0.1c0-6.3,4.5-11.4,10.7-11.4c7,0,10.4,5.7,10.4,10.8c0,1.4-1.1,2.4-2.4,2.4H187c0.6,3.6,3.1,5.5,6.3,5.5c2.1,0,3.8-0.7,5.2-1.9
			c0.4-0.3,0.7-0.5,1.3-0.5c1.1,0,2,0.9,2,2c0,0.6-0.3,1.2-0.7,1.5C199.1,85.8,196.7,86.9,193.3,86.9"/>
	</g>
	<g>
		<path fill="#C4282F" d="M1,43.8c-0.6-0.4-1-1.1-1-1.9c0-1.3,1.1-2.4,2.4-2.4c0.7,0,1.2,0.2,1.5,0.5c2.4,1.9,5,3,8.1,3
			c3.2,0,5.1-1.5,5.1-3.7l0-0.1c0-2.1-1.2-3.2-6.6-4.4C4.4,33.2,1,31.4,1,26V26c0-5,4.1-8.4,9.9-8.4c3.7,0,6.6,1,9.2,2.7
			c0.6,0.3,1.1,1,1.1,2c0,1.3-1.1,2.4-2.4,2.4c-0.5,0-0.9-0.1-1.3-0.4c-2.3-1.5-4.4-2.2-6.7-2.2c-3,0-4.7,1.5-4.7,3.4l0,0.1
			c0,2.2,1.3,3.2,6.9,4.6c6.1,1.5,9.3,3.7,9.3,8.5v0.1c0,5.4-4.3,8.7-10.4,8.7C8,47.4,4.2,46.2,1,43.8"/>
		<path fill="#C4282F" d="M40.9,34.5c-0.3-3.2-2.3-5.8-5.6-5.8c-3.1,0-5.2,2.4-5.7,5.8H40.9z M35.9,47.5c-6.3,0-11.2-4.6-11.2-11.4
			v-0.1c0-6.3,4.4-11.4,10.7-11.4c7,0,10.4,5.7,10.4,10.8c0,1.4-1.1,2.4-2.4,2.4l-13.7,0c0.5,3.6,3.1,5.6,6.3,5.6
			c2.1,0,3.8-0.8,5.2-1.9c0.4-0.3,0.7-0.5,1.3-0.5c1.1,0,2,0.9,2,2c0,0.6-0.3,1.2-0.7,1.5C41.8,46.4,39.3,47.5,35.9,47.5"/>
		<path fill="#C4282F" d="M62.6,39.1v-1.5c-1.3-0.5-3-0.9-5-0.9c-3.2,0-5.1,1.4-5.1,3.7v0.1c0,2.1,1.9,3.3,4.3,3.3
			C60,43.8,62.6,41.9,62.6,39.1 M47.5,40.7L47.5,40.7c0-4.8,3.7-7.1,9.1-7.1c2.4,0,4.2,0.4,5.9,0.9v-0.5c0-3.1-1.9-4.8-5.4-4.8
			c-1.9,0-3.5,0.3-4.9,0.9c-0.3,0.1-0.5,0.1-0.8,0.1c-1.2,0-2.1-0.9-2.1-2.1c0-0.9,0.6-1.7,1.4-2c2.1-0.8,4.2-1.3,7.1-1.3
			c3.3,0,5.7,0.9,7.3,2.5c1.6,1.6,2.4,3.9,2.4,6.8v10.8c0,1.4-1.1,2.4-2.5,2.4c-1.4,0-2.4-1-2.4-2.1v-0.8c-1.5,1.8-3.8,3.2-7.1,3.2
			C51.2,47.5,47.5,45.1,47.5,40.7"/>
		<path fill="#C4282F" d="M72.3,40.9l0-11.5h-0.8c-1.2,0-2.2-0.9-2.2-2.2c0-1.2,1-2.2,2.2-2.2h0.8l0-3.7c0-1.4,1.1-2.5,2.5-2.5
			c1.4,0,2.5,1.1,2.5,2.5v3.7h4c1.2,0,2.2,1,2.2,2.2c0,1.2-1,2.2-2.2,2.2h-4v10.8c0,1.9,1,2.7,2.7,2.7c0.6,0,1.1-0.1,1.3-0.1
			c1.1,0,2.1,0.9,2.1,2.1c0,0.9-0.6,1.7-1.3,2c-1.1,0.4-2.1,0.6-3.4,0.6C74.9,47.4,72.3,45.8,72.3,40.9"/>
		<path fill="#C4282F" d="M88.2,40.9V29.4h-0.8c-1.2,0-2.2-0.9-2.2-2.2c0-1.2,1-2.2,2.2-2.2h0.8v-3.7c0-1.4,1.1-2.5,2.5-2.5
			c1.4,0,2.5,1.1,2.5,2.5v3.7h3.9c1.2,0,2.2,1,2.2,2.2c0,1.2-1,2.2-2.2,2.2h-3.9v10.8c0,1.9,1,2.7,2.7,2.7c0.6,0,1.1-0.1,1.2-0.1
			c1.1,0,2.1,0.9,2.1,2.1c0,0.9-0.6,1.7-1.3,2c-1.1,0.4-2.1,0.6-3.4,0.6C90.8,47.4,88.2,45.8,88.2,40.9"/>
		<path fill="#C4282F" d="M102.6,19c0-1.4,1.1-2.5,2.5-2.5c1.4,0,2.5,1.1,2.5,2.5v25.8c0,1.4-1.1,2.5-2.5,2.5
			c-1.4,0-2.5-1.1-2.5-2.5V19z"/>
		<path fill="#C4282F" d="M127.3,34.5c-0.3-3.2-2.3-5.8-5.6-5.8c-3.1,0-5.2,2.4-5.7,5.8H127.3z M122.3,47.5
			c-6.3,0-11.3-4.6-11.3-11.4v-0.1c0-6.3,4.4-11.4,10.7-11.4c7,0,10.4,5.7,10.4,10.8c0,1.4-1.1,2.4-2.4,2.4h-13.7
			c0.5,3.6,3.1,5.6,6.3,5.6c2.1,0,3.8-0.8,5.2-1.9c0.4-0.3,0.7-0.5,1.3-0.5c1.1,0,2,0.9,2,2c0,0.6-0.3,1.2-0.7,1.5
			C128.2,46.4,125.7,47.5,122.3,47.5"/>
		<path fill="#C4282F" d="M139.2,44.8c-0.5-0.3-1-0.9-1-1.7c0-1.1,0.9-2,2-2c0.4,0,0.8,0.1,1.1,0.3c2.1,1.4,4.3,2.1,6.3,2.1
			c2.2,0,3.4-0.9,3.4-2.4V41c0-1.7-2.3-2.3-4.9-3.1c-3.2-0.9-6.9-2.2-6.9-6.4v-0.1c0-4.2,3.5-6.7,7.8-6.7c2.3,0,4.8,0.7,6.9,1.8
			c0.7,0.4,1.2,1,1.2,1.9c0,1.2-0.9,2-2.1,2c-0.4,0-0.7-0.1-1-0.3c-1.8-0.9-3.6-1.5-5.2-1.5c-2,0-3.1,0.9-3.1,2.2v0.1
			c0,1.6,2.4,2.3,4.9,3.1c3.2,1,6.8,2.4,6.8,6.4v0.1c0,4.6-3.6,6.9-8.1,6.9C144.8,47.4,141.8,46.6,139.2,44.8"/>
		<path fill="#C4282F" d="M183.6,42.5c3.5,0,5.6-1.4,5.6-4v-0.1c0-2.5-1.9-3.9-6-3.9h-8.1v8H183.6z M182.1,30.2
			c3.3,0,5.5-1.3,5.5-3.9v-0.1c0-2.3-1.8-3.7-5.1-3.7h-7.4v7.7H182.1z M170.1,20.5c0-1.5,1.1-2.6,2.6-2.6h10.5
			c3.3,0,5.9,0.9,7.6,2.6c1.3,1.3,2,2.9,2,4.8v0.1c0,3.5-2,5.4-4.1,6.5c3.4,1.2,5.8,3.1,5.8,7.1l0,0.1c0,5.2-4.3,8-10.8,8h-10.9
			c-1.4,0-2.6-1.1-2.6-2.6L170.1,20.5z"/>
		<path fill="#C4282F" d="M212.9,34.5c-0.3-3.2-2.2-5.8-5.6-5.8c-3.1,0-5.2,2.4-5.7,5.8H212.9z M207.9,47.5
			c-6.4,0-11.3-4.6-11.3-11.4v-0.1c0-6.3,4.4-11.4,10.7-11.4c7,0,10.4,5.7,10.4,10.8c0,1.4-1.1,2.4-2.4,2.4h-13.7
			c0.5,3.6,3.1,5.6,6.3,5.6c2.1,0,3.8-0.8,5.2-1.9c0.4-0.3,0.7-0.5,1.3-0.5c1.1,0,2,0.9,2,2c0,0.6-0.3,1.2-0.7,1.5
			C213.8,46.4,211.3,47.5,207.9,47.5"/>
		<path fill="#C4282F" d="M220.2,44.8c-0.5-0.3-1-0.9-1-1.7c0-1.1,0.9-2,2-2c0.4,0,0.8,0.1,1.1,0.3c2.1,1.4,4.3,2.1,6.3,2.1
			c2.2,0,3.4-0.9,3.4-2.4l0-0.1c0-1.7-2.3-2.3-4.9-3.1c-3.2-0.9-6.9-2.2-6.9-6.4v-0.1c0-4.2,3.5-6.7,7.8-6.7c2.3,0,4.8,0.7,6.9,1.8
			c0.7,0.4,1.2,1,1.2,1.9c0,1.2-0.9,2-2.1,2c-0.4,0-0.7-0.1-1-0.3c-1.8-0.9-3.6-1.5-5.2-1.5c-2,0-3.1,0.9-3.1,2.2v0.1
			c0,1.6,2.4,2.3,4.9,3.1c3.2,1,6.8,2.4,6.8,6.4v0.1c0,4.6-3.6,6.9-8.1,6.9C225.7,47.4,222.7,46.6,220.2,44.8"/>
		<path fill="#C4282F" d="M241.2,40.9V29.4h-0.8c-1.2,0-2.2-0.9-2.2-2.2c0-1.2,0.9-2.2,2.2-2.2h0.8v-3.7c0-1.4,1.1-2.5,2.5-2.5
			c1.4,0,2.5,1.1,2.5,2.5v3.7h3.3c1.2,0,2.2,1,2.2,2.2c0,1.2-1,2.2-2.2,2.2h-3.3v10.8c0,1.9,1,2.7,2.7,2.7c0.6,0,1.1-0.1,1.2-0.1
			c1.1,0,2.1,0.9,2.1,2.1c0,0.9-0.6,1.7-1.3,2c-1.1,0.4-2.1,0.6-3.5,0.6C243.8,47.4,241.2,45.8,241.2,40.9"/>
		<path fill="#C4282F" d="M132.5,22.9c0-1.8,1.5-3.3,3.3-3.3c1.8,0,3.3,1.5,3.3,3.3c0,2.4-3.3,5.3-3.3,5.3S132.5,25.3,132.5,22.9"/>
	</g>
	<g>
		<path fill="#818A8F" d="M139,3.7c0-0.3,0.3-0.6,0.6-0.6h7.3c0.3,0,0.6,0.3,0.6,0.6c0,0.3-0.3,0.6-0.6,0.6h-7.3
			C139.3,4.3,139,4,139,3.7z"/>
		<path fill="#818A8F" d="M150.3,1c0-0.1-0.1-0.2-0.1-0.3c0-0.4,0.3-0.6,0.7-0.6c0.3,0,0.6,0.2,0.7,0.5l1.7,5.1l1.7-5.1
			c0.1-0.3,0.3-0.5,0.7-0.5h0.1c0.3,0,0.6,0.2,0.7,0.5l1.7,5.1l1.7-5.1c0.1-0.3,0.3-0.5,0.6-0.5c0.4,0,0.7,0.3,0.7,0.6
			c0,0.1,0,0.2-0.1,0.3l-2.2,6.2c-0.1,0.3-0.4,0.5-0.7,0.5H158c-0.3,0-0.6-0.2-0.7-0.5l-1.7-4.9L154,7.2c-0.1,0.3-0.4,0.5-0.7,0.5
			h-0.1c-0.3,0-0.6-0.2-0.7-0.5L150.3,1z"/>
		<path fill="#818A8F" d="M162.5,6.9V0.8c0-0.4,0.3-0.7,0.7-0.7h4.3c0.3,0,0.6,0.3,0.6,0.6c0,0.3-0.3,0.6-0.6,0.6h-3.7v1.9h3.2
			c0.3,0,0.6,0.3,0.6,0.6c0,0.3-0.3,0.6-0.6,0.6h-3.2v2h3.7c0.3,0,0.6,0.3,0.6,0.6c0,0.3-0.3,0.6-0.6,0.6h-4.4
			C162.8,7.6,162.5,7.3,162.5,6.9z"/>
		<path fill="#818A8F" d="M169.4,2.6c0.5-0.1,0.7-0.5,0.7-1c-0.3-0.1-0.6-0.3-0.6-0.7V0.8c0-0.4,0.3-0.7,0.7-0.7
			c0.5,0,0.8,0.4,0.8,0.9v0.1c0,0.7-0.2,1.2-0.5,1.6c-0.3,0.3-0.7,0.5-1,0.5c-0.2,0-0.3-0.1-0.3-0.3C169.1,2.7,169.2,2.6,169.4,2.6z
			"/>
		<path fill="#818A8F" d="M172.6,0.8c0-0.4,0.3-0.7,0.7-0.7h2.7c0.9,0,1.7,0.3,2.2,0.7c0.4,0.4,0.6,1,0.6,1.6v0
			c0,1.2-0.7,1.9-1.7,2.2l1.4,1.8c0.1,0.2,0.2,0.3,0.2,0.5c0,0.4-0.3,0.6-0.6,0.6c-0.3,0-0.5-0.1-0.6-0.3L175.5,5h-1.7v2
			c0,0.4-0.3,0.7-0.7,0.7c-0.4,0-0.7-0.3-0.7-0.7V0.8z M175.8,3.8c0.9,0,1.5-0.5,1.5-1.2v0c0-0.8-0.6-1.2-1.5-1.2h-1.9v2.5H175.8z"
			/>
		<path fill="#818A8F" d="M180.3,6.9V0.8c0-0.4,0.3-0.7,0.7-0.7h4.3c0.3,0,0.6,0.3,0.6,0.6c0,0.3-0.3,0.6-0.6,0.6h-3.7v1.9h3.2
			c0.3,0,0.6,0.3,0.6,0.6c0,0.3-0.3,0.6-0.6,0.6h-3.2v2h3.7c0.3,0,0.6,0.3,0.6,0.6c0,0.3-0.3,0.6-0.6,0.6H181
			C180.6,7.6,180.3,7.3,180.3,6.9z"/>
		<path fill="#818A8F" d="M190.5,6.8c-0.1-0.1-0.3-0.3-0.3-0.5c0-0.3,0.3-0.6,0.6-0.6c0.2,0,0.3,0.1,0.4,0.1
			c0.6,0.5,1.3,0.8,2.1,0.8c0.8,0,1.3-0.4,1.3-0.9v0c0-0.5-0.3-0.8-1.7-1.1c-1.6-0.4-2.5-0.9-2.5-2.2v0c0-1.3,1.1-2.2,2.6-2.2
			c0.9,0,1.7,0.2,2.4,0.7c0.1,0.1,0.3,0.3,0.3,0.5c0,0.3-0.3,0.6-0.6,0.6c-0.1,0-0.2,0-0.3-0.1c-0.6-0.4-1.1-0.6-1.7-0.6
			c-0.8,0-1.2,0.4-1.2,0.9v0c0,0.6,0.3,0.8,1.8,1.2c1.6,0.4,2.4,1,2.4,2.2v0c0,1.4-1.1,2.2-2.7,2.2C192.3,7.7,191.3,7.4,190.5,6.8z"
			/>
		<path fill="#818A8F" d="M197.5,6.9V0.8c0-0.4,0.3-0.7,0.7-0.7h4.3c0.3,0,0.6,0.3,0.6,0.6c0,0.3-0.3,0.6-0.6,0.6h-3.7v1.9h3.2
			c0.3,0,0.6,0.3,0.6,0.6c0,0.3-0.3,0.6-0.6,0.6h-3.2v2h3.7c0.3,0,0.6,0.3,0.6,0.6c0,0.3-0.3,0.6-0.6,0.6h-4.4
			C197.8,7.6,197.5,7.3,197.5,6.9z"/>
		<path fill="#818A8F" d="M204.7,0.8c0-0.4,0.3-0.7,0.7-0.7h2.7c0.9,0,1.7,0.3,2.2,0.7c0.4,0.4,0.6,1,0.6,1.6v0
			c0,1.2-0.7,1.9-1.7,2.2l1.4,1.8c0.1,0.2,0.2,0.3,0.2,0.5c0,0.4-0.3,0.6-0.6,0.6c-0.3,0-0.5-0.1-0.6-0.3L207.6,5H206v2
			c0,0.4-0.3,0.7-0.7,0.7c-0.4,0-0.7-0.3-0.7-0.7V0.8z M207.9,3.8c0.9,0,1.5-0.5,1.5-1.2v0c0-0.8-0.6-1.2-1.5-1.2H206v2.5H207.9z"/>
		<path fill="#818A8F" d="M214.4,7.2L211.8,1c0-0.1-0.1-0.2-0.1-0.3c0-0.4,0.3-0.6,0.7-0.6c0.3,0,0.6,0.2,0.7,0.5l2.2,5.4l2.2-5.4
			c0.1-0.2,0.3-0.4,0.6-0.4c0.4,0,0.7,0.3,0.7,0.6c0,0.1,0,0.2-0.1,0.3L216,7.2c-0.1,0.3-0.4,0.5-0.8,0.5h-0.1
			C214.8,7.7,214.5,7.5,214.4,7.2z"/>
		<path fill="#818A8F" d="M220.1,0.7c0-0.4,0.3-0.7,0.7-0.7c0.4,0,0.7,0.3,0.7,0.7V7c0,0.4-0.3,0.7-0.7,0.7c-0.4,0-0.7-0.3-0.7-0.7
			V0.7z"/>
		<path fill="#818A8F" d="M223.5,0.7c0-0.4,0.3-0.7,0.7-0.7h0.1c0.3,0,0.5,0.2,0.7,0.4l3.7,4.8V0.7c0-0.4,0.3-0.6,0.6-0.6
			c0.4,0,0.7,0.3,0.7,0.6V7c0,0.4-0.3,0.7-0.6,0.7h-0.1c-0.3,0-0.5-0.2-0.7-0.4l-3.8-5V7c0,0.4-0.3,0.6-0.6,0.6
			c-0.4,0-0.7-0.3-0.7-0.6V0.7z"/>
		<path fill="#818A8F" d="M231.6,3.9L231.6,3.9c0-2.1,1.6-3.9,3.9-3.9c1.1,0,1.9,0.3,2.6,0.8c0.1,0.1,0.3,0.3,0.3,0.5
			c0,0.4-0.3,0.7-0.7,0.7c-0.2,0-0.3-0.1-0.4-0.1c-0.5-0.4-1-0.6-1.8-0.6c-1.4,0-2.4,1.2-2.4,2.6v0c0,1.5,1,2.7,2.5,2.7
			c0.7,0,1.3-0.2,1.8-0.6V4.6h-1.5c-0.3,0-0.6-0.2-0.6-0.6c0-0.3,0.3-0.6,0.6-0.6h2.1c0.4,0,0.7,0.3,0.7,0.7v2
			c0,0.4-0.1,0.6-0.5,0.8c-0.6,0.4-1.5,0.8-2.7,0.8C233.1,7.7,231.6,6.1,231.6,3.9z"/>
		<path fill="#818A8F" d="M242.5,3.7c0-0.3,0.3-0.6,0.6-0.6h7.3c0.3,0,0.6,0.3,0.6,0.6c0,0.3-0.3,0.6-0.6,0.6h-7.3
			C242.8,4.3,242.5,4,242.5,3.7z"/>
	</g>
	<g>
		<path fill="#818A8F" d="M254.5,91.6v-2.8h-0.2c-0.3,0-0.5-0.2-0.5-0.5c0-0.3,0.2-0.5,0.5-0.5h0.2v-0.9c0-0.3,0.3-0.6,0.6-0.6
			c0.3,0,0.6,0.3,0.6,0.6v0.9h1c0.3,0,0.5,0.2,0.5,0.5c0,0.3-0.2,0.5-0.5,0.5h-1v2.6c0,0.5,0.2,0.7,0.7,0.7c0.1,0,0.3,0,0.3,0
			c0.3,0,0.5,0.2,0.5,0.5c0,0.2-0.2,0.4-0.3,0.5c-0.3,0.1-0.5,0.1-0.8,0.1C255.1,93.1,254.5,92.7,254.5,91.6z"/>
		<path fill="#818A8F" d="M258.3,88.3c0-0.3,0.3-0.6,0.6-0.6c0.3,0,0.6,0.3,0.6,0.6v0.3c0.3-0.5,0.8-0.9,1.6-0.9
			c0.8,0,1.3,0.4,1.6,0.9c0.4-0.6,1-0.9,1.8-0.9c1.2,0,1.9,0.7,1.9,2v2.8c0,0.3-0.3,0.6-0.6,0.6c-0.3,0-0.6-0.3-0.6-0.6V90
			c0-0.8-0.4-1.3-1.1-1.3c-0.7,0-1.1,0.5-1.1,1.3v2.4c0,0.3-0.3,0.6-0.6,0.6c-0.3,0-0.6-0.3-0.6-0.6V90c0-0.8-0.4-1.3-1.1-1.3
			s-1.1,0.5-1.1,1.3v2.4c0,0.3-0.3,0.6-0.6,0.6c-0.3,0-0.6-0.3-0.6-0.6V88.3z"/>
	</g>
</g>
</svg>
