<?xml version="1.0" encoding="utf-8"?>
<!-- Generator: Adobe Illustrator 18.1.1, SVG Export Plug-In . SVG Version: 6.00 Build 0)  -->
<svg version="1.1" id="Layer_1" xmlns="http://www.w3.org/2000/svg" xmlns:xlink="http://www.w3.org/1999/xlink" x="0px" y="0px"
	 viewBox="0 0 285.8 123.6" enable-background="new 0 0 285.8 123.6" xml:space="preserve">
<g>
	<path fill="#3D3935" d="M157.6,95.3h-1.9v0.8h1.1v7.2h-1.1v0.8h1.9v-1.3c0.6,1,1.5,1.5,2.6,1.5c1.2,0,2.3-0.8,2.7-1.5
		c0.3-0.5,0.5-1.1,0.5-1.8c0-1.9-1.5-3.4-3.4-3.4c-1.1,0-2,0.6-2.5,1.5V95.3L157.6,95.3z M160.2,103.4c-1.4,0-2.6-1.1-2.6-2.5
		c0-1.5,1.1-2.6,2.6-2.6c1.4,0,2.5,1.1,2.5,2.5C162.7,102.3,161.6,103.4,160.2,103.4 M166,95.3h-1.9v0.8h1.1v7.2H164v0.8h3v-0.8H166
		V95.3L166,95.3z M173.1,102.3c-0.5,0.8-1.3,1.2-2.2,1.2c-1.3,0-2.4-1-2.5-2.4h5.9v-0.2c0-1.9-1.5-3.4-3.4-3.4
		c-1.9,0-3.3,1.6-3.3,3.4c0,1.8,1.5,3.3,3.3,3.3c1.3,0,2.5-0.8,3.1-2H173.1L173.1,102.3z M168.4,100.5c0.1-1.2,1.2-2.2,2.5-2.2
		c1.3,0,2.4,0.9,2.6,2.2H168.4L168.4,100.5z M176.8,97.6h-1.9v0.8h1.1v4.9h-1.1v0.8h3v-0.8h-1.1v-2.7c0-0.6,0-1.2,0.4-1.6
		c0.4-0.4,0.9-0.7,1.5-0.7c0.6,0,1.3,0.2,1.7,0.8c0.3,0.5,0.3,1.1,0.3,1.6v2.6h-1.1v0.8h3v-0.8h-1.1v-2.9c0-0.8-0.2-1.4-0.4-1.7
		c-0.4-0.8-1.5-1.2-2.2-1.2c-0.9,0-1.7,0.4-2.2,1.2V97.6L176.8,97.6z M189,104.1h1.9v-0.8h-1.1v-8h-1.9v0.8h1.1v3
		c-0.5-1-1.6-1.6-2.7-1.6c-1.8,0-3.3,1.5-3.3,3.3c0,0.6,0.2,1.3,0.6,1.8c0.6,0.9,1.7,1.5,2.8,1.5c1.1,0,2.1-0.6,2.6-1.5V104.1
		L189,104.1z M186.5,103.5c-1.4,0-2.6-1.1-2.6-2.6c0-1.4,1.2-2.6,2.6-2.6c1.4,0,2.6,1.1,2.6,2.6C189,102.3,187.9,103.5,186.5,103.5
		 M196.9,102.3c-0.5,0.8-1.3,1.2-2.2,1.2c-1.3,0-2.4-1-2.5-2.4h5.9v-0.2c0-1.9-1.5-3.4-3.4-3.4c-1.9,0-3.3,1.6-3.3,3.4
		c0,1.8,1.5,3.3,3.3,3.3c1.3,0,2.5-0.8,3.1-2H196.9L196.9,102.3z M192.2,100.5c0.1-1.2,1.2-2.2,2.5-2.2c1.3,0,2.4,0.9,2.6,2.2H192.2
		L192.2,100.5z M204.9,104.1h1.9v-0.8h-1.1v-8h-1.9v0.8h1.1v3c-0.5-1-1.6-1.6-2.7-1.6c-1.8,0-3.3,1.5-3.3,3.3c0,0.6,0.2,1.3,0.6,1.8
		c0.6,0.9,1.7,1.5,2.8,1.5c1.1,0,2.1-0.6,2.6-1.5V104.1L204.9,104.1z M202.3,103.5c-1.4,0-2.6-1.1-2.6-2.6c0-1.4,1.1-2.6,2.6-2.6
		c1.4,0,2.6,1.1,2.6,2.6C204.9,102.3,203.8,103.5,202.3,103.5 M213.2,95.3h-1.9v0.8h1.1v7.2h-1.1v0.8h1.9v-1.3
		c0.6,1,1.5,1.5,2.6,1.5c1.2,0,2.3-0.8,2.7-1.5c0.3-0.5,0.5-1.1,0.5-1.8c0-1.9-1.5-3.4-3.4-3.4c-1.1,0-2,0.6-2.5,1.5V95.3
		L213.2,95.3z M215.8,103.4c-1.4,0-2.6-1.1-2.6-2.5c0-1.5,1.1-2.6,2.6-2.6c1.4,0,2.5,1.1,2.5,2.5
		C218.3,102.3,217.2,103.4,215.8,103.4 M225.4,102.3c-0.5,0.8-1.3,1.2-2.2,1.2c-1.3,0-2.4-1-2.5-2.4h5.9v-0.2c0-1.9-1.5-3.4-3.4-3.4
		c-1.9,0-3.3,1.6-3.3,3.4c0,1.8,1.5,3.3,3.3,3.3c1.3,0,2.5-0.8,3.1-2H225.4L225.4,102.3z M220.7,100.5c0.1-1.2,1.2-2.2,2.5-2.2
		c1.3,0,2.4,0.9,2.6,2.2H220.7L220.7,100.5z M233.6,98.4h1v-0.8h-2.9v0.8h1l-1.9,4.7l-1.9-4.7h1v-0.8H227v0.8h1.1l2.3,5.7h0.9
		L233.6,98.4L233.6,98.4z M240.6,102.3c-0.5,0.8-1.3,1.2-2.2,1.2c-1.3,0-2.4-1-2.5-2.4h5.9v-0.2c0-1.9-1.5-3.4-3.4-3.4
		c-1.9,0-3.3,1.6-3.3,3.4c0,1.8,1.5,3.3,3.3,3.3c1.3,0,2.5-0.8,3.1-2H240.6L240.6,102.3z M235.9,100.5c0.1-1.2,1.2-2.2,2.5-2.2
		c1.3,0,2.4,0.9,2.6,2.2H235.9L235.9,100.5z M244.2,97.6h-1.9v0.8h1.1v4.9h-1.1v0.8h3v-0.8h-1.1v-2.6c0-1.4,0.6-2.2,2.1-2.3v-0.8
		c-0.9,0-1.8,0.4-2.1,1.3V97.6L244.2,97.6z M252.7,104.1h1.9v-0.8h-1.1v-4.9h1.1v-0.8h-1.9V99c-0.6-1-1.5-1.5-2.6-1.5
		c-1.2,0-2.2,0.6-2.8,1.5c-0.3,0.5-0.5,0.9-0.5,1.8c0,0.7,0.2,1.3,0.5,1.8c0.6,0.9,1.6,1.5,2.8,1.5c1.1,0,2.1-0.5,2.6-1.5V104.1
		L252.7,104.1z M250.2,98.3c1.4,0,2.6,1.1,2.6,2.5c0,1.4-1.1,2.6-2.6,2.6c-1.4,0-2.6-1.2-2.6-2.6C247.6,99.5,248.8,98.3,250.2,98.3
		 M255.6,104.8c0.4,1.3,1.7,2,3,2c0.9,0,1.8-0.4,2.5-1.1c0.7-0.7,0.8-1.5,0.8-2.5v-4.8h1.1v-0.8h-1.9V99c-0.5-0.9-1.5-1.5-2.6-1.5
		c-1.1,0-2.2,0.6-2.8,1.5c-0.3,0.4-0.5,1.1-0.5,1.9c0,0.7,0.3,1.4,0.5,1.8c0.5,1,1.9,1.6,2.8,1.6c1.1,0,2.1-0.6,2.6-1.6v0.7
		c0,0.8-0.1,1.3-0.7,1.9c-0.4,0.5-1.1,0.8-1.8,0.8c-0.9,0-1.7-0.5-2.1-1.3H255.6L255.6,104.8z M258.6,103.5c-1.4,0-2.6-1.2-2.6-2.6
		c0-1.4,1.2-2.6,2.6-2.6c1.4,0,2.6,1.2,2.6,2.6C261.2,102.3,260,103.5,258.6,103.5 M269,102.3c-0.5,0.8-1.3,1.2-2.2,1.2
		c-1.3,0-2.4-1-2.5-2.4h5.9v-0.2c0-1.9-1.5-3.4-3.4-3.4c-1.9,0-3.3,1.6-3.3,3.4c0,1.8,1.5,3.3,3.3,3.3c1.3,0,2.5-0.8,3.1-2H269
		L269,102.3z M264.3,100.5c0.1-1.2,1.2-2.2,2.5-2.2c1.3,0,2.4,0.9,2.6,2.2H264.3L264.3,100.5z"/>
	<path fill="#3D3935" d="M279.1,57.6c-0.2-0.1-0.5-0.2-1-0.2h-0.7v1.7h0.7c0.4,0,0.6,0,0.8-0.1c0.3-0.1,0.5-0.4,0.5-0.7
		C279.4,57.9,279.3,57.7,279.1,57.6 M278.2,56.9c0.6,0,1,0.1,1.3,0.2c0.5,0.2,0.7,0.6,0.7,1.2c0,0.4-0.2,0.7-0.5,0.9
		c-0.2,0.1-0.4,0.2-0.7,0.2c0.4,0.1,0.6,0.2,0.8,0.5c0.2,0.2,0.3,0.5,0.3,0.7v0.3c0,0.1,0,0.2,0,0.3c0,0.1,0,0.2,0,0.2l0,0.1h-0.8
		c0,0,0,0,0-0.1c0,0,0,0,0,0l0-0.1v-0.4c0-0.5-0.1-0.9-0.4-1.1c-0.2-0.1-0.5-0.1-0.9-0.1h-0.6v1.8h-0.8v-4.7H278.2L278.2,56.9z
		 M275.8,56.6c-0.7,0.7-1.1,1.6-1.1,2.6c0,1,0.3,1.9,1.1,2.6c0.7,0.7,1.6,1.1,2.6,1.1c1,0,1.9-0.4,2.6-1.1c0.7-0.7,1.1-1.6,1.1-2.6
		c0-1-0.4-1.9-1.1-2.6c-0.7-0.7-1.6-1.1-2.6-1.1C277.3,55.6,276.5,55.9,275.8,56.6 M281.3,62.2c-0.8,0.8-1.8,1.3-3,1.3
		c-1.2,0-2.2-0.4-3-1.3c-0.8-0.8-1.2-1.8-1.2-3c0-1.2,0.4-2.2,1.2-3c0.8-0.8,1.8-1.2,3-1.2c1.2,0,2.2,0.4,3,1.2
		c0.8,0.8,1.2,1.8,1.2,3C282.6,60.4,282.2,61.4,281.3,62.2"/>
	<path fill="#3D3935" d="M211.7,51.7c-0.7-6.6-3.9-7.8-6.4-2C202.7,55.6,212.4,58.3,211.7,51.7L211.7,51.7z"/>
	<path fill="#3D3935" d="M259,81.3c-11.7-3.9-2.6-13.8,1.6-14.5C271.9,64.9,268.6,84.5,259,81.3L259,81.3z M268.8,64.4
		c-5.8-4.5-17.4-2.3-20.8,7.5c-2.1,6.1,3.6,13.5,10.8,14.9C269.6,88.8,278.9,72.2,268.8,64.4L268.8,64.4z"/>
	<g>
		<defs>
			<rect id="SVGID_1_" x="6.3" y="6.2" width="276.2" height="113.4"/>
		</defs>
		<clipPath id="SVGID_2_">
			<use xlink:href="#SVGID_1_"  overflow="visible"/>
		</clipPath>
		<path clip-path="url(#SVGID_2_)" fill="#3D3935" d="M241.3,65.9c-1.7-1.4-4-2.3-6-1.5c-1.9,0.8-2.7,2.5-2.8,2.7
			c0.1-0.4,1.2-5.9-5.2-7.5c-6.7-1.6-16.3,19-19.5,16.8c-1.8-1.3-0.9-6.6-0.5-9.3c0-0.4,0.3-1.3,0.8-3.7c0.4-2.4-0.8-3.4-1.3-3.7
			c-2.8-1.8-5.3,1.3-7.2,3.8c-4.1,5.3-12.5,11.5-17.1,8.3c-2.2-1.6-1-9.7,3.8-12c4.8-2.2,6.2,0.5,7.9-1.5c2.1-2.5-1.2-4.9-4.2-5.3
			c-9.6-1.4-15.2,10.1-14.5,18.7c-0.6,2.1-4.6,9.3-10.6,7.9c-3.1-0.7-4.4-6.3-3.5-10.5c0.6-2.7,3.6-6,5.9-6.4c3.4-0.5,4.3,1,5.6-1
			c1.5-2.4-0.6-3.9-2-4.4c-11.3-4.2-21,13.2-14.1,23.2c-0.5,1.2-1.3,2.6-3.3,2.6c-0.2,0-0.3,0-0.5,0c-2.2-0.2-2.8-5-3.5-9.7
			c-0.4-2.7-0.7-5.3-1.3-6.2c-0.4-0.7-1.3-1.1-2.2-1.1c-0.9,0-1.9,0.4-2.6,1.2c-0.6,2-0.4,4.9-0.1,7.6c0.3,3.7,0.6,7.2-1,9
			c-0.6,0.7-1.5,1.1-2.6,1.2l-0.1,0c-0.8,0-1.5-0.3-2.1-0.8c-2.2-2.2-2.2-8.2-2.2-13.5c0-1.3,0-2.5,0-3.5c-0.1-2.1-1.8-2.9-3.4-2.8
			c-0.7,0-1.4,0.2-1.9,0.5c-1.6,0.9-0.9,7.4-0.6,10.9c0.6,5.3,1.2,9.6,3.7,12.2c1.5,1.6,3.8,2.5,6.4,2.4c3-0.1,5.9-1.3,7.8-3.4
			c0.1-0.1,0.2-0.1,0.2-0.1c0.1,0,0.1,0,0.2,0.1c1.5,1.1,3.5,1.7,5.7,1.7c2,0,5.7-0.7,8.6-4.4c0.2,0.1,0.4,0.2,0.6,0.3
			c7.8,3.5,14-2.7,17-7.8c1.2,0.7,1.9,1.3,3.4,1.7c7,1.6,14.6-5.3,17.6-7.2c-0.3,4.9,1.1,9.9,6,11.1c5.4,1.4,10-3.9,12.8-7.7
			c2.8-3.7,5.6-8.5,7.3-8c1.7,0.5-1.6,16.9-1,20.7c0.2,1.6,3.7,1.9,4.8,0.4c0.8-1.2,2.1-6.4,2.7-8.4c0.7-2,2.4-8.1,4.1-8
			c1.6,0.1,3.1,18,8.3,17.3c3.9-0.5,1.9-5.4,0.8-9C245.2,75.1,243,67.3,241.3,65.9L241.3,65.9z"/>
		<path clip-path="url(#SVGID_2_)" fill="#3D3935" d="M94.1,81.6c-3.4,0.4-8.5-2.8-6.7-8c1.6-4.5,8.3-9.6,10.7-3
			C99.5,74.6,97.4,81.2,94.1,81.6L94.1,81.6z M103.8,70.8c-1.4-5.6-7.4-10.4-13.6-7.2c0.8-2.3,2.9-6.9,2.9-7.5
			c-0.4-1.2-4.9-2.2-5.5-1.4c-2.9,3.8-5.4,13.9-7,21l0-0.3c-1,2.3-2.9,5-6.3,4.4c-2.6-0.4-3.4-2-1.1-9.6c-0.7-1.7-3.8-2.4-5.2-1.5
			c-1.2,3.3-1,5.6-2.8,10.7c-1.9,3.7-6.7,4.1-7.5,1.6c-2-5.9,3.9-17.2,9.5-17.3c5.6,0,7.6,4.5,8.7,2.3c1.1-2.2-2-8.1-10-7.9
			c-1.9,0.1-4.7,1.5-6.5,2.9c-5.1,3.8-8,10.9-7.9,17.2c0.1,7.6,9.3,14.5,17.3,3.8C70.8,84.6,76,86,79,84.4l-0.5,8.1
			c0,7.8,0.4,17,1.1,25.9c0.2,1,4.2,2.4,5.9-0.9c0.1-0.1,0.2-0.3,0.2-0.4c-1.2-11.6-1.4-23.2-0.1-32.9
			C94.9,91.6,106.8,82.7,103.8,70.8L103.8,70.8z"/>
		<path clip-path="url(#SVGID_2_)" fill="#3D3935" d="M52.6,62.6c1.4,0.8,3.5-1.7,3.6-2.5c-0.1-1.7-1.1-3.7-2.5-4.9
			c-1.1-1-3.3-3.3-6.7-2.4c-3.4,0.9-4.9,3.4-4.9,3.4s0.1-1.9,0-4.8c-0.1-2.3-1.2-3-1.6-3.1c0,0,0,0-0.1,0h0
			c-1.5-0.6-2.4-0.4-3.2,0.1c-0.1,0-0.4,0.2-0.5,0.3c-1.9,1.4-8.9,5.9-11.8,8l-4.1,3.2l-1.1-4.5c0,0,0,0,0,0
			c-5.3-20.8-7.3-34.4-7-38.7c0-2.2,0.7-5.3,2.1-5.6c0.7-0.1,1.8,0.2,2.4,0.8c1.5,1.5,2.6,5.2,3.6,7c2.5,0.7,3.7,0.6,5.4-1.8
			C25,8.7,17.5,2.7,9.8,8.4c-7.8,5.6-0.8,27,5,51.3c0,0,0,0,0,0l1.1,4.2c-3.6,4.1-5.2,5.2-8.1,9.7c0.4,3.6,2.7,4.2,4.2,4.3
			c2.3-4,2.7-4.2,5.5-7.4c1.9,8.3,4.7,21.8,6.8,27.3c1.5,3.3,5.5,0.9,5.1-1.8C27.7,89.2,24.6,75,22.4,66l0.3-0.3
			c1.4-1.6,7.8-5.7,12.8-9c0,10,0.3,25.3,0.2,31.5c0.4,2.4,4.4,3.3,6.1,0.9c0.6-0.8,0.3-2.8,0.3-5.1c0.4-24.3,5.2-25.1,7.2-25.3
			C51.5,58.4,51.1,62,52.6,62.6L52.6,62.6z"/>
	</g>
	<path fill="#3D3935" d="M118.1,86.5c-3.4,0.6-8.7-2.4-7-7.7c1.4-4.6,7.8-10,10.6-3.5C123.3,79.3,121.4,86,118.1,86.5L118.1,86.5z
		 M113.4,68.6c0.7-2.3,2.6-7,2.5-7.6c-0.4-1.2-5-2-5.6-1.2c-7.3,13.9-8.4,40.5-7.4,55.1c0.8,1.3,2.5,1.6,3.3,1.6
		c1.3-0.1,2.3-1,2.8-2.4c-0.6-8.7-0.4-18.1,0.7-24.7c9.6,7,21.1-2.4,17.5-14.2C125.7,69.7,119.5,65.2,113.4,68.6L113.4,68.6z"/>
</g>
</svg>
