<?xml version="1.0" encoding="utf-8"?>
<!-- Generator: Adobe Illustrator 18.1.1, SVG Export Plug-In . SVG Version: 6.00 Build 0)  -->
<svg version="1.1" id="Layer_1" xmlns="http://www.w3.org/2000/svg" xmlns:xlink="http://www.w3.org/1999/xlink" x="0px" y="0px"
	 viewBox="0 0 612 152.8" enable-background="new 0 0 612 152.8" xml:space="preserve">
<g>
	<g>
		<path fill-rule="evenodd" clip-rule="evenodd" fill="#FFFFFF" d="M195.1,10.7c0,0-7.9,16.7-7.7,16.7c-0.9-0.4-28.3-3.9-41.5,1
			c-5.7,3.5-11.2,5.7-16.2,18c1.1,0.6,2.8-0.2,4.1-0.6c13.4-3.4,27.8-10,42.9-3.8c-1.1,1.4-15.7,11.3-21.2,16.6
			c-7-1.9-14.1-2.8-21.5-2c-3.2,0.3-6.9,1.2-10.1,2.2c-0.3,2.6-1.9,4-2.8,6.9c-8,18.3-16.5,36.5-26.3,54
			C87,134.4,70.4,143,53.4,140.8c-12.6-1.1-25.1-8.4-29.2-20.6c-2-4.2-1.1-19.5,0.3-22.1c4.5-16.3,20.5-25,35.2-26.5
			c-0.1-0.3,4.4,32.6,4.6,32.5c-6.5-0.2-14.6,1.3-18.8,7c-1.7,2.7-2.8,5.3-2.2,6.5c0.3,3.7,3.2,5.5,6.5,6.9c2.3,1,4.8,0.2,4.8,0.2
			c8.2,0.2,12-6.8,15.7-13.1C75.3,98.2,81.5,87,86.1,73.6c1.1-3.6,2.4-5.6,3-8c-7.4-0.9-15.4-4.3-17.9-11.5
			c-0.4-1.2-1.3-3.9-0.2-6.4c1.8-5.5,4.9-10.4,10.6-12.7l1.9,0.2c0.9,2.8-2.7,2.9-4.1,4.3c-3.4,3.1-3.6,7.8-1.9,11.8
			c2.3,3.1,5.7,4.9,9.6,5.3c1.9-0.6,4-1,5.5-1.2c1.1-3.3,2-5.2,3.4-9.5c4.7-9.4,7.9-20.9,17.2-27.4c14.2-10.9,38.6-7,51-7.7
			C171.5,10.7,195.1,10.7,195.1,10.7 M338.2,40.8c-0.2,0.5-3.9,7.4-5.5,11.9c0.1-0.1,21.2-0.1,21.1,0.1c0,0-4.4,9.9-4.7,9.6l-21.7,0
			c-1.9,5.3-20.8,46.1-24.7,58.4c-0.4,1.1-0.1,2.7,1,3.1c6.7,1.4,10.8-4.2,14.3-7.2c0.4-5.8,0.7-13.7,3.6-19.4
			c5.4-14.6,19-29.8,35.9-30.5c8.2-0.2,18.3,0,22.2,8.7c1.7-2.6,2.8-5.9,4.1-8.9l28.7-0.2c-1,3.2-2.8,6.6-4.4,9.9
			c-4.8,13.2-11.4,25.7-16.6,38.6c-0.4,2.3-1.5,5.3,0,7.4c0.8,1.6,2.7,1.7,4.3,2.2c4.1,0.4,7.8-2.9,10.4-5.6
			c5.3-13.7,12.9-25.8,17.4-39.8c0.5-2,1.5-5.1-1.2-5.3c-2-0.7-6.3,1.8-8.8,2.5l0.1-2c7.5-6.7,17.7-8.8,28.4-7.7
			c5.8,0.4,11.2,3.3,14,7.9c2.2-0.9,3.7-2.4,5.5-3.6c8.3-4.3,19.9-4.2,28.2-0.2c3.5,2.8,6.4,7.4,4.8,12.7
			c-5.7,10.3-14.8,31.4-14.9,31.6c-1.9,3.5-2.7,5.6-2.2,7.7c1,2.5,4.1,0.8,6,0.7c4.9-2,8.7-5.9,10.2-11.1
			c0.9-18.7,11.8-35.3,28.4-43.2c8.7-3.2,18.9-3.4,27.5,0.2c2.7,1.5,3.9,4.1,6.1,6c2.1-2.4,3.8-8.7,4-7.3l28.5,0.1
			c-5.8,11.7-10.9,24.1-16.6,36c-2.2,5.8-7.6,11.3-6.5,18.6c1.1,1.8,2.9,2.7,4.8,2.8c4.2-0.9,7.7-3.5,10.6-6.2l1.7,0
			c-3.9,10.4-13,20.2-24.4,21.1c-5.8,0.9-10.9-2.8-13.7-7c-1.2-2.3-1-4.6-2.3-3.6c-7.3,6.4-17.2,12.1-27.4,10.5
			c-8.6-1.8-16.9-9.9-19.4-18.5c-6.8,12.1-20.7,19.4-35.2,17.8c-4.7,0-9.7-2.5-12-6.7c-5-7.6,1.5-15.2,4-22.1
			c3.2-9,9.3-16.7,9.7-26.9c-1-1.5-2.8-2.1-4.6-2.1c-7.7,3.7-8.7,13.2-12.6,20c-5.5,11.7-11.3,24.1-17.3,35.6l-29.1,0
			c0,0,3.1-6.4,3.5-7.6c-7.2,5.1-15.6,11.3-25,8c-3.7-1.7-6.1-4.7-7.5-8.4c-9.3,8.1-23.8,14-35.3,8.8c-6.6-3.7-9.9-9.6-13.1-15.1
			c-6.4,9.2-17.5,18.4-30.2,17.2c-6.9-1.1-14.5-5.5-18-11.7c-1.9,1.1-3.1,3.5-4.9,4.8c-9.3,5.9-23.2,10.2-33.8,3.9
			c-2.8-2.8-5.7-5.6-5.3-10.3c3.5-12.5,10-23.8,14.9-35.8c0.5-2.7,2-5.3,0.3-7.5c-1.5-1.2-3.7-1.3-5.6-0.9c0,0-3.1,2.5-3.6,3.8
			c-8.3,16.3-15.9,34.3-24.6,50.7c0,0.1-28.6,0.1-28.6,0.1s13.5-32,20-44.7c-5.2,2-14.5,2.1-14.5,2.1c-1.7,18.2-13.2,36.3-30.6,42.4
			c-6.8,3.1-20.7,1.7-20.7,1.7c-8-2.3-16.2-7.4-18.9-15.8c-6.9-15.9,2.1-33,12.6-43.7c11.8-11.4,31.3-16.4,47-8.4
			c4.6,2.5,7.9,7.2,8.6,11.1c5,4.3,12.4,3.2,18.1,1c1.6-0.8,3.1-2.1,3.3-4.1c0.3-1.9-0.2-3.9-2.1-4.5c-2.7-0.6-5.6,1.8-6.4,2.6
			c-0.5,0-1.2,0.7-1.9-0.7l0.4-1c6.9-7,17.8-9.5,28.7-8.2c5.8,0.5,11.1,3.2,14,7.9c2.5-0.7,2.7-1.7,5.5-3.6
			c8.1-4.1,18.7-4.8,26.8-0.7c2.6,1.8,5.2,4.7,5.8,8.2c0.9,5-2,8.6-3.3,12.7c-5,10.3-11.1,20.1-13.5,31.5c1.5,3.1,3.7,1.6,8.7-0.2
			c3.1-0.6,28-59.1,28.6-60.3l-15.1,0c0,0.4,4.8-9.5,4.8-9.5c18.4-0.6,36.8-4.5,51.7-13.8L338.2,40.8 M143.3,100.1
			c4.1-9.5,10.7-15.7,15-13.9c4.2,1.8,4.4,10.9,0.4,20.5c-4,9.4-10.7,15.7-15,13.9C139.5,118.8,139.3,109.6,143.3,100.1 M526.2,95.9
			c5.2-7.3,12.8-10.9,17.1-7.8c4.2,2.9,3.5,11.2-1.6,18.6c-5.2,7.3-12.8,10.8-17,7.9C520.4,111.6,521.1,103.3,526.2,95.9 M349,96
			c5.1-7.4,12.7-10.9,17-7.9c4.3,2.9,3.5,11.2-1.6,18.5c-5.2,7.3-12.8,10.9-17.1,7.9C343.1,111.6,343.8,103.3,349,96z"/>
	</g>
	<path fill="#FFFFFF" d="M583.5,146.2h1.4l2.2,3.5h1.4l-2.3-3.6c1.2-0.2,2.1-0.8,2.1-2.3c0-1.6-1-2.3-2.9-2.3h-3.1v8.2h1.3V146.2z
		 M585,152.8c3.9,0,7.2-3,7.2-7.1c0-4.1-3.3-7.1-7.2-7.1c-3.9,0-7.2,3-7.2,7.1C577.8,149.7,581.1,152.8,585,152.8z M579.2,145.6
		c0-3.4,2.5-5.9,5.7-5.9c3.2,0,5.8,2.5,5.8,5.9c0,3.4-2.6,5.9-5.8,5.9C581.8,151.6,579.2,149.1,579.2,145.6z M583.5,145.1v-2.5h1.7
		c0.9,0,1.8,0.2,1.8,1.2c0,1.3-1,1.3-2,1.3H583.5z"/>
</g>
</svg>
